<svg xmlns="http://www.w3.org/2000/svg" width="2.8rem" height="2.8rem" viewBox="0 0 256 256">
    <defs>
        <linearGradient x1="22.896" y1="21.735" x2="25.851" y2="51.882" gradientUnits="userSpaceOnUse" id="prefix__a">
            <stop offset=".003" stop-color="#f2e4e4" />
            <stop offset="1" stop-color="#f2e4e4" />
        </linearGradient>
        <linearGradient x1="23.332" y1="7.747" x2="24.445" y2="18.163" gradientUnits="userSpaceOnUse" id="prefix__b">
            <stop offset="0" stop-color="#f2e4e4" />
            <stop offset=".333" stop-color="#f2e4e4" />
            <stop offset=".805" stop-color="#f2e4e4" />
            <stop offset="1" stop-color="#f2e4e4" />
        </linearGradient>
    </defs>
    <g transform="scale(5.33333)" fill="none" stroke-miterlimit="10" font-family="none" font-weight="none"
        font-size="none" text-anchor="none">
        <path
            d="M8.501 10.5a1 1 0 01-.79-.386l-3.5-4.5a.999.999 0 111.578-1.228l3.5 4.5a.999.999 0 01-.788 1.614zm31.071 0a.999.999 0 01-.788-1.614l3.5-4.5a1 1 0 011.578 1.228l-3.5 4.5a1 1 0 01-.79.386z"
            fill="#f2e4e4" />
        <path d="M38 44H10a3 3 0 01-3-3V25a3 3 0 013-3h28a3 3 0 013 3v16a3 3 0 01-3 3z" fill="url(#prefix__a)" />
        <path d="M39 20H9a2 2 0 01-2-2v-8a2 2 0 012-2h30a2 2 0 012 2v8a2 2 0 01-2 2z" fill="url(#prefix__b)" />
        <circle cx="15.5" cy="14" r="3" fill="#533822" />
        <circle cx="32.5" cy="14" r="3" fill="#533822" />
        <path
            d="M24 43c-5.514 0-10-4.486-10-10s4.486-10 10-10 10 4.486 10 10-4.486 10-10 10zm-8-10c0 4.411 3.589 8 8 8s8-3.589 8-8c0 4.411-3.589 8-8 8s-8-3.589-8-8zm8 6h.005H24zm-.006 0h.002-.002zm.016 0h-.003.003zm-.022 0h.003-.003zM24 27c-3.309 0-6 2.691-6 6a6.007 6.007 0 005.988 6c-2.616-.005-4.971-1.756-5.73-4.262a1.325 1.325 0 01.207-1.184A1.373 1.373 0 0119.563 33h.001c-.431 0-.842-.207-1.099-.555a1.329 1.329 0 01-.208-1.187c.847-2.785 3.589-4.549 6.465-4.216A6.377 6.377 0 0024 27zm.016 12h-.004.004zm.005 0h-.003.003zm.004 0h-.003.003zm.006 0h-.004.004zm.005 0h-.004.004zm.005 0h-.003.003zm.007 0h-.005.005zm.015 0h-.016.016zm.006 0h-.005.005zm.005 0h-.005.005zm.006-.001l-.006.001.006-.001zm.005 0h-.005.005zm.243-.008zm.005 0h-.004.004zm.005-.001l-.003.001.003-.001zm.004 0zm.005 0zM23.994 37zm.015 0h-.002.002zm-.02 0zm.025 0h-.003.003zm1.823-.446zM23.984 37zm-.005 0zm-3.44-2c.315.541.754.998 1.27 1.338A4.007 4.007 0 0120.55 35zm9.423-2.677zm-2.616-1.522c.286.435.489.926.586 1.453a4.016 4.016 0 01-.625 2.994c.623-.907.836-2.003.602-3.12a3.83 3.83 0 00-.563-1.327zM20.947 33c.533 0 1.02.319 1.239.814A1.999 1.999 0 0024 35c.594 0 1.154-.264 1.537-.723a1.993 1.993 0 00.428-1.662 2.009 2.009 0 00-1.557-1.575c-1.088-.213-1.898.425-2.223 1.148a1.36 1.36 0 01-1.238.812zm-.587 1.63l.001.004-.001-.004zm.177-3.63h.012c.242-.42.553-.783.911-1.081-.365.299-.68.664-.923 1.081zm3.987-1.966a3.882 3.882 0 01.189.027h-.001a6.074 6.074 0 00-.188-.027z"
            fill="#533822" opacity=".05" />
        <path
            d="M24 42.5c-5.238 0-9.5-4.262-9.5-9.5s4.262-9.5 9.5-9.5 9.5 4.262 9.5 9.5-4.262 9.5-9.5 9.5zm0-18c-4.687 0-8.5 3.813-8.5 8.5 0 4.687 3.813 8.5 8.5 8.5 4.687 0 8.5-3.813 8.5-8.5 0-4.687-3.813-8.5-8.5-8.5zm0 16c-4.136 0-7.5-3.364-7.5-7.5s3.364-7.5 7.5-7.5 7.5 3.364 7.5 7.5-3.364 7.5-7.5 7.5zm0-14a6.508 6.508 0 00-6.5 6.5c0 3.584 2.916 6.5 6.5 6.5s6.5-2.916 6.5-6.5-2.916-6.5-6.5-6.5zm0 12a5.54 5.54 0 01-5.264-3.907.83.83 0 01.131-.741.87.87 0 01.696-.352h1.384a.86.86 0 01.782.518A2.498 2.498 0 0024 35.5c.743 0 1.443-.329 1.921-.902.484-.58.674-1.316.535-2.073a2.52 2.52 0 00-1.951-1.976 2.506 2.506 0 00-2.776 1.436.861.861 0 01-.78.516h-1.384a.872.872 0 01-.697-.353.836.836 0 01-.131-.743c.806-2.65 3.484-4.287 6.23-3.821 2.184.375 3.955 2.077 4.409 4.236a5.526 5.526 0 01-1.104 4.642A5.484 5.484 0 0124 38.5zm-4.242-4a4.536 4.536 0 004.242 3c1.36 0 2.634-.608 3.495-1.669a4.532 4.532 0 00.902-3.807c-.37-1.761-1.817-3.149-3.601-3.455-2.177-.378-4.312.877-5.039 2.931h1.094a3.493 3.493 0 016.589.843 3.523 3.523 0 01-.751 2.895A3.491 3.491 0 0124 36.5a3.498 3.498 0 01-3.149-2zm1.058-.075c0 .001 0 .001 0 0 0 .001 0 .001 0 0z"
            fill="#533822" opacity=".07" />
        <path
            d="M24 42c-4.963 0-9-4.037-9-9s4.037-9 9-9 9 4.037 9 9-4.037 9-9 9zm0-16c-3.859 0-7 3.141-7 7s3.141 7 7 7 7-3.141 7-7-3.141-7-7-7zm.882 2.076a5.01 5.01 0 00-5.667 3.474c-.068.225.115.45.35.45h1.384a.358.358 0 00.324-.219 2.988 2.988 0 013.328-1.722 3.012 3.012 0 012.348 2.376A3.006 3.006 0 0124 36a2.99 2.99 0 01-2.727-1.779.359.359 0 00-.326-.221h-1.383c-.234 0-.417.224-.349.449A5.008 5.008 0 0024 38a5.01 5.01 0 004.887-6.078c-.411-1.955-2.036-3.508-4.005-3.846z"
            fill="#533822" />
    </g>
</svg>